<svg xmlns="http://www.w3.org/2000/svg" width="10" height="10" fill="none" viewBox="0 0 10 10"><path fill="#818181" fill-rule="evenodd" d="M5 10c-2.357 0-3.536 0-4.268-.732S0 7.357 0 5 0 1.464.732.732 2.643 0 5 0s3.536 0 4.268.732S10 2.643 10 5s0 3.536-.732 4.268S7.357 10 5 10m0-7.125a.563.563 0 0 0-.562.563.375.375 0 0 1-.75 0 1.313 1.313 0 1 1 2.253.914l-.132.133a3 3 0 0 0-.285.31c-.11.14-.149.243-.149.33V5.5a.375.375 0 0 1-.75 0v-.375c0-.328.152-.593.307-.791.114-.147.258-.29.375-.407l.096-.098A.563.563 0 0 0 5 2.875M5 7.5a.5.5 0 1 0 0-1 .5.5 0 0 0 0 1" clip-rule="evenodd"/></svg>